<svg width="16" height="16" viewBox="0 0 16 16" fill="none" xmlns="http://www.w3.org/2000/svg">
<path fill-rule="evenodd" clip-rule="evenodd" d="M8.56316 1.88172C9.30499 1.16523 10.2986 0.768775 11.3299 0.777737C12.3612 0.786698 13.3477 1.20036 14.077 1.92963C14.8062 2.65891 15.2199 3.64544 15.2289 4.67674C15.2378 5.70805 14.8414 6.70162 14.1249 7.44345L14.1183 7.45033L12.1177 9.45082C11.7189 9.84967 11.239 10.1582 10.7106 10.3553C10.1821 10.5524 9.61747 10.6336 9.05489 10.5933C8.49231 10.553 7.94498 10.3922 7.45001 10.1218C6.95505 9.85137 6.52403 9.47766 6.18619 9.02601C5.98771 8.76066 6.04191 8.38465 6.30726 8.18617C6.57261 7.98768 6.94863 8.04189 7.14711 8.30724C7.38188 8.6211 7.6814 8.88079 8.02536 9.06871C8.36932 9.25663 8.74967 9.36838 9.14061 9.39638C9.53156 9.42438 9.92395 9.36797 10.2912 9.23099C10.6584 9.094 10.9919 8.87964 11.269 8.60244L13.2649 6.60657C13.7606 6.09144 14.0351 5.40218 14.0289 4.68717C14.0227 3.9705 13.7352 3.28495 13.2284 2.77816C12.7217 2.27138 12.0361 1.98392 11.3194 1.97769C10.6042 1.97148 9.915 2.2459 9.39981 2.74197L8.25634 3.87879C8.02135 4.11242 7.64145 4.11132 7.40782 3.87632C7.17419 3.64132 7.1753 3.26142 7.41029 3.02779L8.56316 1.88172ZM5.28944 5.6446C5.81789 5.44747 6.38255 5.3663 6.94513 5.40659C7.50771 5.44689 8.05504 5.6077 8.55001 5.87812C9.04497 6.14854 9.47599 6.52225 9.81383 6.9739C10.0123 7.23925 9.95811 7.61526 9.69275 7.81374C9.4274 8.01223 9.05139 7.95802 8.85291 7.69267C8.61814 7.37881 8.31862 7.11912 7.97466 6.9312C7.6307 6.74328 7.25035 6.63153 6.85941 6.60353C6.46846 6.57553 6.07607 6.63194 5.70884 6.76892C5.34161 6.90591 5.00814 7.12027 4.73104 7.39747L2.73517 9.39333C2.23944 9.90846 1.96489 10.5977 1.9711 11.3127C1.97733 12.0294 2.26479 12.715 2.77157 13.2217C3.27835 13.7285 3.96391 14.016 4.68058 14.0222C5.39559 14.0284 6.0845 13.7542 6.59963 13.2585L7.73577 12.1224C7.97008 11.888 8.34998 11.888 8.5843 12.1224C8.81861 12.3567 8.81861 12.7366 8.5843 12.9709L7.43754 14.1176C6.6957 14.8341 5.70146 15.2311 4.67015 15.2222C3.63884 15.2132 2.65231 14.7995 1.92304 14.0703C1.19377 13.341 0.780107 12.3545 0.771145 11.3232C0.762183 10.2919 1.15864 9.29829 1.87513 8.55646L1.88177 8.54958L3.88236 6.5491C4.2811 6.15024 4.76102 5.84172 5.28944 5.6446Z" fill="#F3ECFE"/>
</svg>
