<svg width="16" height="16" viewBox="0 0 16 16" fill="none" xmlns="http://www.w3.org/2000/svg">
<path fill-rule="evenodd" clip-rule="evenodd" d="M9.1988 8.37354L9.1967 8.37158C9.14014 8.31881 9.09773 8.25838 9.06967 8.19502C9.04166 8.13177 9.02791 8.06561 9.02791 7.99995C9.02791 7.93429 9.04166 7.86813 9.06967 7.80488C9.09772 7.74156 9.14009 7.68117 9.19661 7.62841L13.1665 3.894L13.174 3.88677C13.2905 3.77416 13.4584 3.70243 13.6434 3.70001C13.8284 3.6976 13.9991 3.76494 14.1196 3.87518C14.2388 3.98422 14.2979 4.12376 14.2999 4.2598C14.3019 4.39313 14.2491 4.53068 14.1384 4.641L14.1356 4.64379L10.4898 7.99995L14.1384 11.3589C14.1924 11.4127 14.2329 11.4735 14.2598 11.537C14.2877 11.6029 14.3009 11.6718 14.2999 11.7401C14.2989 11.8084 14.2836 11.8771 14.2536 11.9426C14.2236 12.0082 14.1788 12.0705 14.1196 12.1247C14.0603 12.179 13.9879 12.2238 13.9056 12.2546C13.8233 12.2854 13.7341 12.3011 13.6434 12.2999C13.5527 12.2987 13.4641 12.2807 13.3831 12.2479C13.3022 12.2151 13.2318 12.1687 13.1746 12.1136L9.1988 8.37354ZM5.47195 10.1494H5.51924L3.22433 7.99995L6.80634 4.645L6.80819 4.64322C6.92044 4.53254 6.97393 4.39404 6.97195 4.2598C6.96994 4.12376 6.91082 3.98422 6.79164 3.87518C6.67115 3.76494 6.50044 3.6976 6.31546 3.70001C6.1305 3.70243 5.9625 3.77416 5.84608 3.88677L5.8391 3.89352L5.8381 3.89448L1.86876 7.62832C1.81222 7.68108 1.76977 7.74155 1.74172 7.80488C1.71371 7.86813 1.69995 7.93429 1.69995 7.99995C1.69995 8.06561 1.71371 8.13177 1.74172 8.19502C1.76978 8.25838 1.81219 8.31881 1.86875 8.37158L1.87085 8.37354L5.83905 12.1064C5.95398 12.2145 6.11856 12.2822 6.29856 12.2822C6.47856 12.2822 6.64315 12.2145 6.75808 12.1064C6.8717 11.9996 6.92671 11.8641 6.92671 11.7328C6.92671 11.6015 6.8717 11.4661 6.75808 11.3593L5.47195 10.1494Z" fill="#ECE2FD"/>
</svg>
