<svg width="40" height="40" viewBox="0 0 40 40" fill="none" xmlns="http://www.w3.org/2000/svg">
<circle cx="20" cy="20" r="20" fill="#FFD07B"/>
<path d="M14.2886 13.9091H17.0244V23.0369C17.0244 23.8807 16.8348 24.6136 16.4555 25.2358C16.0805 25.858 15.5585 26.3374 14.8894 26.674C14.2204 27.0107 13.4427 27.179 12.5564 27.179C11.768 27.179 11.0521 27.0405 10.4086 26.7635C9.76942 26.4822 9.26232 26.0561 8.88732 25.4851C8.51232 24.9098 8.32695 24.1875 8.33121 23.3182H11.0862C11.0947 23.6634 11.165 23.9595 11.2971 24.2067C11.4335 24.4496 11.6189 24.6371 11.8532 24.7692C12.0919 24.897 12.3731 24.9609 12.697 24.9609C13.0379 24.9609 13.3255 24.8885 13.5599 24.7436C13.7985 24.5945 13.9796 24.3771 14.1032 24.0916C14.2268 23.8061 14.2886 23.4545 14.2886 23.0369V13.9091ZM23.7734 27H19.1327V13.9091H23.8117C25.1285 13.9091 26.262 14.1712 27.2123 14.6953C28.1626 15.2152 28.8934 15.9631 29.4048 16.9389C29.9204 17.9148 30.1782 19.0824 30.1782 20.4418C30.1782 21.8054 29.9204 22.9773 29.4048 23.9574C28.8934 24.9375 28.1583 25.6896 27.1995 26.2138C26.245 26.7379 25.1029 27 23.7734 27ZM21.9005 24.6286H23.6583C24.4765 24.6286 25.1647 24.4837 25.7229 24.1939C26.2854 23.8999 26.7073 23.446 26.9886 22.8324C27.2741 22.2145 27.4168 21.4176 27.4168 20.4418C27.4168 19.4744 27.2741 18.6839 26.9886 18.0703C26.7073 17.4567 26.2876 17.005 25.7293 16.7152C25.1711 16.4254 24.4829 16.2805 23.6647 16.2805H21.9005V24.6286Z" fill="white"/>
</svg>
